<?xml version="1.0" encoding="UTF-8" standalone="no"?>
<!-- Created with Inkscape (http://www.inkscape.org/) -->

<svg
   width="100mm"
   height="100.00001mm"
   viewBox="0 0 100 100.00001"
   version="1.1"
   id="svg1"
   sodipodi:docname="path14.svg"
   inkscape:version="1.4.2 (ebf0e940, 2025-05-08)"
   xmlns:inkscape="http://www.inkscape.org/namespaces/inkscape"
   xmlns:sodipodi="http://sodipodi.sourceforge.net/DTD/sodipodi-0.dtd"
   xmlns="http://www.w3.org/2000/svg"
   xmlns:svg="http://www.w3.org/2000/svg">
  <sodipodi:namedview
     id="namedview1"
     pagecolor="#ffffff"
     bordercolor="#000000"
     borderopacity="0.25"
     inkscape:showpageshadow="2"
     inkscape:pageopacity="0.0"
     inkscape:pagecheckerboard="0"
     inkscape:deskcolor="#d1d1d1"
     inkscape:document-units="mm"
     inkscape:zoom="1.5937481"
     inkscape:cx="145.5688"
     inkscape:cy="218.3532"
     inkscape:window-width="1728"
     inkscape:window-height="1051"
     inkscape:window-x="0"
     inkscape:window-y="38"
     inkscape:window-maximized="1"
     inkscape:current-layer="svg1" />
  <defs
     id="defs1" />
  <g
     id="layer2"
     transform="translate(-24.352578,-8.1365431)">
    <circle
       style="display:inline;fill:#0066cc;fill-opacity:1;stroke-width:0.47668"
       id="path1"
       cx="74.352577"
       cy="58.136543"
       r="50" />
  </g>
  <g
     id="layer1"
     style="display:inline"
     transform="translate(-22.278555,-9.2533244)">
    <path
       style="clip-rule:evenodd;fill-rule:evenodd;stroke-width:0.264583;image-rendering:optimizeQuality;shape-rendering:geometricPrecision;text-rendering:geometricPrecision"
       fill="#131313"
       d="m 67.969017,16.528167 c 9.535054,-0.686065 18.354675,1.474787 26.458333,6.482291 0.661459,0.661459 1.322917,1.322917 1.984375,1.984375 -0.156898,-1.701006 -0.421481,-3.376612 -0.79375,-5.027083 0.109538,-0.120915 0.241829,-0.209285 0.396875,-0.264583 1.448329,0.862277 2.462477,2.097087 3.042709,3.704166 0.400843,1.475052 0.665427,2.974446 0.79375,4.497917 2.415911,1.180306 4.532581,2.767806 6.350001,4.7625 0.34766,0.973931 0.0389,1.591204 -0.92604,1.852083 -0.77973,-0.468577 -1.52956,-0.997744 -2.24896,-1.5875 1.98675,4.642115 2.82443,9.536906 2.51354,14.684375 -0.24739,2.339446 -0.51197,4.67651 -0.79375,7.011458 2.35982,0.826029 3.72666,2.501636 4.10104,5.027083 0.31062,4.383088 -0.0421,8.704527 -1.05833,12.964584 -0.96652,2.271183 -2.68632,3.550179 -5.15938,3.836458 -0.98557,0.201083 -1.9558,0.156898 -2.910413,-0.132292 -0.754063,2.837921 -1.591733,5.660231 -2.513542,8.466667 C 91.678859,97.369751 82.021567,102.88182 68.233601,101.32712 57.761657,100.16904 50.661828,94.656714 46.934643,84.790666 c -1.009915,-2.853002 -1.803665,-5.763419 -2.38125,-8.73125 -4.865159,1.447006 -7.863946,-0.316971 -8.995834,-5.291667 -0.592137,-3.151981 -0.768614,-6.326981 -0.529166,-9.525 0.09419,-2.836597 1.284816,-5.04137 3.571875,-6.614583 -0.839523,-8.559006 0.792162,-16.584612 4.894791,-24.077083 1.299898,-2.446602 3.196167,-4.254764 5.688542,-5.423958 -0.870479,0.09763 -1.752335,0.09763 -2.645833,0 -0.35269,-0.529167 -0.35269,-1.058333 0,-1.5875 2.89851,-2.055548 6.07351,-3.554677 9.524999,-4.497917 2.116667,-0.617273 4.233334,-1.23481 6.35,-1.852083 1.88648,-0.253471 3.738563,-0.474133 5.55625,-0.661458 z"
       id="path2" />
    <path
       style="clip-rule:evenodd;fill:#ffffff;fill-opacity:1;fill-rule:evenodd;stroke-width:0.264583;image-rendering:optimizeQuality;shape-rendering:geometricPrecision;text-rendering:geometricPrecision"
       fill="#fcdc23"
       d="m 102.36485,57.009416 c 2.37067,0.03413 3.56129,1.268942 3.57188,3.704167 0.37941,3.956843 0.0267,7.837487 -1.05834,11.641666 -1.1168,1.170252 -2.48364,1.611313 -4.10104,1.322917 0.50006,-5.57186 1.02923,-11.12811 1.5875,-16.66875 z"
       id="path3" />
    <path
       style="clip-rule:evenodd;fill:#ffffff;fill-opacity:1;fill-rule:evenodd;stroke-width:0.264583;image-rendering:optimizeQuality;shape-rendering:geometricPrecision;text-rendering:geometricPrecision"
       fill="#fcdb23"
       d="m 39.923184,57.009416 c 0.929482,-0.1651 1.679311,0.09948 2.248959,0.79375 0.572823,5.285846 1.057804,10.577513 1.455208,15.875 -2.539206,0.586581 -4.258998,-0.29554 -5.159375,-2.645833 -0.605896,-3.416829 -0.782373,-6.856413 -0.529167,-10.31875 0.18759,-1.524 0.849048,-2.758546 1.984375,-3.704167 z"
       id="path4" />
    <path
       style="clip-rule:evenodd;fill:#ffffff;fill-opacity:1;fill-rule:evenodd;stroke-width:0.264583;image-rendering:optimizeQuality;shape-rendering:geometricPrecision;text-rendering:geometricPrecision"
       fill="#fedb23"
       d="m 99.719017,53.30525 c -0.259027,0.826822 -0.347398,1.708679 -0.264583,2.645833 -0.357717,5.332148 -1.019175,10.623814 -1.984375,15.875 -0.814388,1.71741 -1.696509,3.393281 -2.645834,5.027083 -1.668727,1.879071 -3.741208,2.540529 -6.217708,1.984375 -1.855523,-1.192742 -3.795977,-2.251075 -5.820833,-3.175 -2.3749,-1.03505 -4.844521,-1.38774 -7.408333,-1.058333 -1.026848,0.778139 -2.173288,1.263385 -3.439584,1.455208 -1.667668,-0.423598 -3.343539,-0.820473 -5.027083,-1.190625 -3.39725,0.16166 -6.57225,1.131887 -9.525,2.910417 -3.014662,1.607343 -5.61631,1.122097 -7.805208,-1.455209 -1.283494,-1.861608 -2.429933,-3.801798 -3.439583,-5.820833 -0.57838,-5.107517 -1.107546,-10.222971 -1.5875,-15.345833 -0.372269,-4.038071 -0.01931,-8.006821 1.058333,-11.90625 3.02895,-5.76289 7.394575,-10.216885 13.096875,-13.361458 0.596371,-0.304271 1.213644,-0.392642 1.852083,-0.264583 -1.161785,0.850635 -1.955535,1.953154 -2.38125,3.307291 0.176477,0.705644 0.617273,1.14644 1.322917,1.322917 7.768166,-6.770423 16.675629,-8.931275 26.722916,-6.482292 6.861704,2.54 11.227329,7.346686 13.096875,14.419792 0.355071,3.694377 0.487362,7.398543 0.396875,11.1125 z"
       id="path7" />
    <path
       style="clip-rule:evenodd;fill-rule:evenodd;stroke-width:0.264583;image-rendering:optimizeQuality;shape-rendering:geometricPrecision;text-rendering:geometricPrecision"
       fill="#161515"
       d="m 71.144017,58.861499 c 1.242484,-0.166952 1.948127,0.362215 2.116667,1.5875 -0.410633,3.429794 -0.719402,6.869377 -0.926042,10.31875 -0.603779,0.93689 -1.309423,1.024996 -2.116666,0.264584 -0.28284,-1.168136 -0.415132,-2.358761 -0.396875,-3.571875 0.123295,-2.609321 0.343693,-5.211234 0.661458,-7.805209 0.27649,-0.230981 0.496887,-0.495564 0.661458,-0.79375 z"
       id="path8" />
    <path
       style="clip-rule:evenodd;fill-rule:evenodd;stroke-width:0.264583;image-rendering:optimizeQuality;shape-rendering:geometricPrecision;text-rendering:geometricPrecision"
       fill="#141314"
       d="m 83.844017,60.448999 c 3.343804,-0.268816 4.446323,1.142207 3.307292,4.233334 -1.102784,1.128183 -2.381779,1.348581 -3.836459,0.661458 -1.529027,-1.834356 -1.352549,-3.465777 0.529167,-4.894792 z"
       id="path9" />
    <path
       style="clip-rule:evenodd;fill-rule:evenodd;stroke-width:0.264583;image-rendering:optimizeQuality;shape-rendering:geometricPrecision;text-rendering:geometricPrecision"
       fill="#151515"
       d="m 57.914851,60.448999 c 2.760927,-0.281781 3.951552,0.95303 3.571875,3.704167 -0.772319,1.461823 -1.962944,1.946804 -3.571875,1.455208 -2.10185,-1.729052 -2.10185,-3.448843 0,-5.159375 z"
       id="path10" />
    <path
       style="clip-rule:evenodd;fill-rule:evenodd;stroke-width:0.264583;image-rendering:optimizeQuality;shape-rendering:geometricPrecision;text-rendering:geometricPrecision"
       fill="#141314"
       d="m 81.991934,49.071916 c 3.563673,-0.179123 6.694752,0.879211 9.392708,3.175 0.335227,1.119452 -0.06165,1.825096 -1.190625,2.116667 -1.617662,-0.808831 -3.293533,-1.47029 -5.027083,-1.984375 -1.499394,-0.08811 -2.998523,-0.176477 -4.497917,-0.264583 -0.970756,-1.625071 -0.52996,-2.639219 1.322917,-3.042709 z"
       id="path11" />
    <path
       style="clip-rule:evenodd;display:inline;fill-rule:evenodd;stroke-width:0.264583;image-rendering:optimizeQuality;shape-rendering:geometricPrecision;text-rendering:geometricPrecision"
       fill="#151515"
       d="m 59.237767,49.071916 c 1.34038,-0.04233 2.663296,0.08996 3.96875,0.396875 1.058334,0.881856 1.058334,1.763977 0,2.645834 -1.411022,0.08811 -2.82231,0.176477 -4.233333,0.264583 -1.589352,0.552185 -3.132931,1.213644 -4.630208,1.984375 -1.579298,-0.627327 -1.799696,-1.553369 -0.661458,-2.778125 1.807633,-0.992981 3.659716,-1.830917 5.556249,-2.513542 z"
       id="path12" />
    <path
       style="clip-rule:evenodd;display:inline;fill:#ffffff;fill-opacity:1;fill-rule:evenodd;stroke-width:0.264583;image-rendering:optimizeQuality;shape-rendering:geometricPrecision;text-rendering:geometricPrecision"
       fill="#fbdd23"
       d="m 62.412767,81.615666 c 3.201194,0.481806 6.420115,0.834496 9.657292,1.058333 2.846652,-0.159544 5.668698,-0.512233 8.466667,-1.058333 0.950383,-0.06377 1.435364,0.377296 1.455208,1.322916 0.0291,0.49583 -0.147108,0.892705 -0.529167,1.190625 -6.344443,2.262453 -12.694443,2.262453 -19.05,0 -0.691091,-0.837141 -0.691091,-1.675077 0,-2.513541 z"
       id="path14" />
  </g>
</svg>
